# xmcd
#
# Track frame offsets:
#	150
#	16210
#	35981
#	51600
#	64400
#	78201
#	95348
#	109623
#	123042
#	136914
#	150825
#	170741
#	184548
#	200720
#	218820
#	233381
#	248740
#	263854
#	279089
#	286435
#	300387
#	315795
#	330460
#	345711
#
# Disc length: 4785 seconds
#
# Revision: 0
# Processed by: cddbd v1.5.1PL0 Copyright (c) Steve Scherf et al.
# Submitted via: EasyCDDAExtractor 7.7.1.2
#
DISCID=4412af18
DTITLE=Forró Bailão - 2005
DYEAR=2005
DGENRE=Forró
TTITLE0=É Chamego Ou Xaveco - Maguiníficus
TTITLE1=Mágica - Calcinha Preta
TTITLE2=Abre Seu Coração - Baby Som
TTITLE3=A Dança Do Dedinho - Mastruz
TTITLE4=Por Amor - Calcinha Preta
TTITLE5=Um Dia PErfeito - Falamansa
TTITLE6=Linda - Jorge De Altinho
TTITLE7=Forró Do Hã-Hã - Dj Maluco 
TTITLE8=Papo Aberto - Atração Fatal
TTITLE9=Balançando O Esqueleto - Aviões Do Forró
TTITLE10=Taura Do Forró - Carlos Mais
TTITLE11=Se Quebrou - Kalipso
TTITLE12=Ponto Final - Cheiro De Menina 
TTITLE13=Motorista E O Motoboy - Caju E Castanha
TTITLE14=A Lingua Nela - Novinho Da Paraíba
TTITLE15=Luz, Câmera, Ação - Limão Com Mel
TTITLE16=Thimet, Thimet - Arribasaia
TTITLE17=Ele Não Bebe, Não Fuma e Não Foge - Saborear
TTITLE18=Batom Na Boca - 100 Preconceito
TTITLE19=Calcinha No Chão - Caviar Com Rapadura
TTITLE20=Deixa Eu Botar - Água De Cheiro
TTITLE21=Doidinha Pra Te Amar - Lady Lu
TTITLE22=Hoje Eu Te Quero Ter - Banda Warlou
TTITLE23=Vem Me Amar - Forró Cariciar
EXTD=
EXTT0=
EXTT1=
EXTT2=
EXTT3=
EXTT4=
EXTT5=
EXTT6=
EXTT7=
EXTT8=
EXTT9=
EXTT10=
EXTT11=
EXTT12=
EXTT13=
EXTT14=
EXTT15=
EXTT16=
EXTT17=
EXTT18=
EXTT19=
EXTT20=
EXTT21=
EXTT22=
EXTT23=
PLAYORDER=
